<?xml version="1.0" encoding="UTF-8"?>
<svg id="Layer_1" xmlns="http://www.w3.org/2000/svg" viewBox="0 0 310.17 121.59">
  <defs>
    <style>
      .cls-1 {
        fill: #231f20;
      }
    </style>
  </defs>
  <path class="cls-1" d="M62.93,54.19c.71-2.33,2.74-9.06,3.96-11.97-1.05.09-6.5-.53-8-.62-.35,1.5,2.72,4.27,2.15,6.61h-.44c-.92-4.14-3.95-6.61-9.32-6.61-5.81,0-9.38,3.75-9.38,8.18s3.04,5.94,8.98,8.24c4.8,1.85,6.38,2.86,6.38,4.92,0,2.43-1.85,4-5.8,4-5.55,0-9.51-2.9-9.51-7.43,0-.49,0-.93.04-1.41-.97-.04-2.29-.18-3.21-.35-.62,2.37-2.68,9.11-3.96,12.11,1.28-.09,6.1.35,7.65.43.3-1.45-2.5-4.18-1.93-6.29l.4-.05c1.19,4.06,5.1,6.51,10.78,6.51s9.6-2.99,9.6-7.57-3.34-6.24-8.71-8.28c-5.46-2.02-6.7-2.99-6.7-5.14,0-2.56,1.94-4.36,5.64-4.36,4.71,0,8.14,2.42,8.14,7.52,0,.43,0,.84-.04,1.27,1.01,0,2.37.13,3.29.27Z"/>
  <path class="cls-1" d="M147.04,66.73c-2.51,0-3.26-2.29-4.27-4.8-.62-1.54-1.32-2.86-2.47-3.69h1.37c7.47,0,11.65-3.69,11.65-8.98s-3.6-7.08-9.76-7.08c-1.19,0-4.62.08-8.01.08-2.86,0-5.33,0-6.2-.04-.27,1.05-.62,2.29-1.1,3.39.4-.04,1.1-.04,2.2-.04,1.32,0,2.02.58,1.55,2.2-1.15,4.18-3.79,12.46-5.5,16.91-.49,1.36-1.01,1.8-2.51,1.8-.49,0-1.41,0-1.98-.04-.23,1.15-.66,2.33-1.15,3.44,1.58-.09,11.18-.13,12.67,0,.18-.75.74-2.51,1.05-3.4-.7.05-1.5,0-2.16,0-1.54,0-2.06-.66-1.67-1.98.49-1.75,1.1-3.91,1.85-6.46,4.62.26,5.15,1.4,6.82,5.68,1.23,3.25,2.64,6.6,6.78,6.6,2.94,0,4.92-1.58,6.86-3.69-.79-.97-1.28-1.81-1.81-2.82-1.4,1.94-2.59,2.95-4.22,2.95ZM133.53,55.16c.92-2.91,2.06-6.21,3.34-9.73,1.89-.08,4.14-.08,5.68-.08,5.02,0,6.65,1.27,6.65,4.18,0,3.96-3.13,5.93-8.28,5.93-2.9,0-4.8-.08-7.39-.3Z"/>
  <path class="cls-1" d="M182.11,54.33c.7-2.73,2.47-9.15,3.74-12.11-1.23.04-6.66-.57-8.19-.62-.22,1.1,3.06,4,2.44,6.43h-.27c-.88-4-3.69-6.43-8.67-6.43-9.51,0-15.57,9.91-15.57,18.39,0,6.25,3.61,10.48,11.39,10.48,7.09,0,12.01-4.53,14.52-10.11-1.23-.53-2.42-1.1-3.52-1.76-2.16,4.84-5.68,8.36-10.65,8.36s-7.43-2.37-7.43-7.35c0-6.47,4.62-14.43,11.88-14.43,4.09,0,7,2.28,7,7.52,0,.43,0,.84-.04,1.27,1.05.05,2.42.13,3.39.36Z"/>
  <path class="cls-1" d="M206.27,42.22c-.27,1.05-.66,2.25-1.05,3.39.65-.04,1.23-.04,2.46-.04,1.63,0,1.9.66,1.5,2.16-.53,1.81-1.31,4.4-2.2,7.08-3.43.05-9.24.05-12.62,0,.88-2.63,1.75-5.27,2.55-7.35.53-1.4,1.05-1.89,2.29-1.89.7,0,1.8,0,2.59.04.27-1.01.66-2.28,1.05-3.39-1.93.18-11.04.09-12.76,0-.27,1.1-.62,2.25-1.05,3.39.61-.04,1.8-.04,2.51-.04,1.32,0,1.71.49,1.23,2.16-1.23,4.14-3.83,12.27-5.46,16.76-.57,1.59-.92,2.03-2.37,2.03-.57,0-1.4,0-2.29-.05-.22,1.15-.66,2.29-1.14,3.4,1.58-.09,11.08-.13,12.62,0,.13-.75.7-2.51,1.01-3.4-.96.05-1.71.05-2.24.05-1.67,0-1.85-.71-1.46-2.21.49-1.75,1.15-3.95,1.85-6.29,3.34-.09,9.15-.09,12.67,0-.84,2.41-1.63,4.75-2.24,6.46-.54,1.5-1.19,2.03-2.43,2.03-.66,0-1.58,0-2.78-.05-.26,1.15-.7,2.29-1.14,3.4,1.58-.09,11.26-.13,12.89,0,.22-.89.66-2.51.92-3.34-.74.04-1.44.04-1.93.04-1.63,0-1.85-.7-1.4-2.25,1.27-4.4,3.82-12.41,5.45-16.85.53-1.44,1.19-1.85,2.64-1.89.44,0,1.5.04,2.02.04.31-1.01.75-2.28,1.15-3.39-1.81.18-11.18.09-12.85,0Z"/>
  <path class="cls-1" d="M265.68,42.18c-1.5,0-4.13.08-6.95.08s-5.85,0-7.13-.04c-.27,1.15-.62,2.29-1.15,3.52.88-.04,1.59-.04,2.72-.04,2.03,0,2.68.53,2.16,2.2-1.15,4.18-3.78,12.28-5.5,16.77-.53,1.36-1.32,1.85-3.39,1.85-1.09,0-1.71,0-2.24-.05-.27,1.1-.7,2.29-1.19,3.4,1.58-.05,4.65-.05,7.92-.05,3.44-.04,7.04.05,8.85.05,10.25,0,15.57-8.8,15.57-18.05,0-7.3-4.22-9.63-9.68-9.63ZM259.26,66.56c-2.02,0-3.79-.04-5.68-.13,1.98-6.96,4.18-13.86,6.73-20.9,1.59-.04,3.34,0,4.67,0,4.93,0,6.38,2.02,6.38,6.47,0,7.7-4,14.56-12.1,14.56Z"/>
  <path class="cls-1" d="M223.01,42.04c-.27,1.07-.67,2.28-1.11,3.44.75-.04,1.47-.04,3.61-.04,1.64,0,2.14.58,1.64,2.22-1.2,4.19-3.83,12.7-5.52,17.16-.49,1.25-1.07,1.83-2.58,1.83-1.42,0-2.46,0-3.52-.05-.27,1.17-.76,2.32-1.21,3.48,7.94-.13,18.94-.13,26.69,0,.36-1.56,2.05-6.69,2.81-8.38-1.25-.26-2.45-.66-3.43-.98-.31.9-.63,1.83-.94,2.72-.85,2.58-1.6,3.25-3.79,3.25-3.34,0-8.73-.09-10.38-.13.71-2.67,1.61-5.71,2.59-8.91,3.33.04,9.04.13,10.29.22.13-1.11.4-2.27.71-3.43-1.25.08-6.69.13-10.03.13.98-3.03,2.05-6.15,3.21-9.13h8.69c1.61,0,2.19.31,2.1,1.87-.08,1.33-.22,2.98-.35,4.19,1.16-.09,2.54-.09,3.74-.05.19-2.04.76-7.39,1.03-9.35-6.92.04-17.47.08-24.24-.05Z"/>
  <g>
    <path class="cls-1" d="M94.02,46.62c-.15-1.16-.38-2.35-1.03-3.32-.77-1.16-2.05-1.9-3.41-2.22-1.34-.32-2.76-.26-4.13-.05-4.31.66-8.4,2.72-11.5,5.81.42-1.94.59-3.93.51-5.91-.02-.43-.06-.89-.29-1.26-.87-1.38-3.17.2-3.87.99s-1.17,1.76-1.55,2.76c-1.16,2.96-1.67,6.13-2.24,9.26-.46,2.54-.98,5.09-1.01,7.66-.04,2.58.42,5.23,1.79,7.42,1.42,2.3,3.76,3.95,6.29,4.89,2.53.95,5.26,1.24,7.97,1.24s5.46-.33,7.53-1.97c2.78-2.18,3.52-6.09,3.33-9.61-.07-1.4-.51-3.1-1.87-3.45.77.03,1.5-.37,2.02-.94.12-.13.24-.28.33-.42.53-.79.75-1.74.92-2.67.47-2.7.55-5.47.21-8.19ZM91.45,55.68c-.17.32-.43.64-.78.65-.49.01-.78-.53-.92-.99-.69-2.32-.44-4.87-1.34-7.12-.21-.51-.47-1-.9-1.35-.45-.38-1.01-.53-1.58-.52-.86.03-1.74.42-2.4.99-1.2,1.04-1.9,2.53-2.42,4.03-.84,2.35-1.3,4.83-1.31,7.32-.01,1.88.27,3.85,1.41,5.34,1.15,1.48,3.35,2.26,4.96,1.3,1.35-.79,1.88-2.46,2.85-3.69.15-.2.38-.4.63-.34.31.07.37.48.37.8-.02,1.57-.04,3.16-.46,4.67-.42,1.51-1.3,2.95-2.66,3.73-1.17.67-2.57.78-3.91.85-2.37.11-4.77.12-7.08-.43-2.31-.55-4.53-1.71-5.98-3.6-1.4-1.82-1.97-4.16-2.01-6.44-.05-2.29.37-4.56.78-6.81.71-3.86,1.39-7.74,2.75-11.41.12-.35.35-1.07.74-1.23.52-.21.66.41.62.84-.49,4.29-1.55,8.49-2.51,12.7-.09.38-.18.82.05,1.15.33.47,1.11.36,1.52-.06.39-.42.51-1.03.64-1.6.86-3.74,3.22-7.1,6.44-9.2-2.24,2.43-3.63,5.64-3.87,8.93-.03.38-.03.8.23,1.08.38.41,1.11.25,1.48-.18.37-.42.49-1,.61-1.55.56-2.41,1.69-4.71,3.39-6.51,1.69-1.82,3.93-3.13,6.37-3.58,1.25-.24,2.74-.15,3.52.85.36.45.51,1.04.63,1.61.52,2.31.74,4.69.69,7.06-.02.94-.1,1.91-.54,2.75ZM89.73,58.73c-.49.01-.96.13-1.4.38-1.06.61-1.63,1.56-2.19,2.49-.15.26-.32.52-.47.76-.58.85-1.03,1.08-1.67.87-.38-.12-.71-.41-.94-.8-1.11-1.95-.96-4.18-.63-5.72.34-1.63,1.08-4.16,1.88-5.84.37-.78.63-1.17,1.17-1.19.02-.01.04-.01.06-.01,1.81-.05,1.69,9.06,4.2,9.06Z"/>
    <path class="cls-1" d="M116.1,42.21c-7.91-1.29-14.17,3.2-17.39,9.1-.62.96-1.17,1.83-1.46,2.3-.78,1.29-1.49,2.64-2.44,3.82-.17.2-.37.54-.6.64-.3.12-.6-.07-.93-.03-.99.12-.84,1.17-.42,1.77.42.64.88,1.26,1.36,1.85.7.86,1.52,1.7,2.58,2,.09.03.2.05.29.06,1.27,3.11,4.27,5.33,9.26,6.14,10.51,1.71,18.14-6.8,19.54-15.26,1.03-6.31-1.89-11.11-9.79-12.4ZM99.7,60.61c-.15.18-.33.33-.52.45-.09.06-.2.11-.31.15-.57.23-1.24.12-1.75-.2-.36-.23-.77-.62-.93-1.04-.01-.01-.01-.03-.01-.04-.07-.23-.05-.38.03-.53.09-.18.26-.32.44-.55.93-1.14,1.83-2.29,2.52-3.58.33-.62.72-1.2,1.15-1.75.46-.61,1.04-1.25,1.79-1.54.12-.04.25-.08.38-.11.12-.03.26-.04.38-.04.07,0,.13,0,.21.01.17.02.32.05.46.11.09.03.18.07.25.12.12.07.23.17.32.27.05.04.09.1.14.17.13.17.24.35.35.54.07.12.14.26.22.38.26.47.56.94.91,1.34.36.41.77.76,1.25,1.01,1.16.61,2.26.53,4.73-1.95.32-.33.78-.05.61.37-.49,1.2-2.21,3.98-2.93,5.04-.33.49-.82.93-1.37,1.03-.11.02-.22.03-.33.02-.08-.01-.15-.02-.23-.03-.14-.03-.28-.09-.41-.16-.27-.14-.52-.35-.75-.55-.05-.05-.11-.09-.18-.14-.87-.69-1.92-1.22-3.01-1.19-.41.02-.84.11-1.22.28-.39.18-.74.4-1.04.7-.42.42-.73.96-1.14,1.4ZM121.53,54.24c-1.07,6.61-7,13.36-14.33,12.15-2.95-.47-4.95-1.74-5.85-3.82.12-.1.24-.23.35-.36.49-.61.84-1.55,1.63-1.55.51-.01.91.4,1.28.75,1.02.95,2.42,1.58,3.79,1.35,1.64-.27,2.87-1.66,3.61-3.14.75-1.48,1.18-3.11,2-4.54.83-1.43,2.22-2.7,3.88-2.72.29,0,.6.04.89-.04.29-.08.56-.31.57-.61,0-.14-.06-.28-.13-.4-.55-1.08-1.55-1.91-2.71-2.26-.55-.18-1.14-.23-1.7-.18-.64.06-1.26.25-1.83.56-1.38.77-2.24,2.2-3.13,3.52-.24.35-.52.73-.92.84-.39.1-.8-.07-1.09-.34-.3-.26-.5-.62-.7-.96-.6-1.03-1.3-2.06-2.33-2.64,2.61-2.97,6.31-4.84,10.47-4.16,4.74.77,7.09,3.56,6.26,8.56Z"/>
    <path class="cls-1" d="M103.28,51.89c.09.02.19.04.27.07-.14-.06-.3-.09-.46-.11.06.01.12.02.2.04Z"/>
  </g>
</svg>