<svg width="124" height="100" viewBox="0 0 124 100" fill="none" xmlns="http://www.w3.org/2000/svg">
<path d="M45.0505 56.0485C45.3714 55.4569 45.5586 55.0536 45.7993 54.6771C46.4946 53.5477 46.4144 52.8216 44.9435 52.4721C43.6331 52.1494 42.3761 51.6116 41.0925 51.1813C39.8355 50.751 39.4076 49.783 39.4344 48.5191C39.4611 47.1477 40.6913 47.4435 41.4134 47.1208C42.1354 46.7981 42.911 46.6098 43.6598 46.3678C46.6551 45.3998 48.7678 43.625 50.4259 40.7208C54.892 32.8417 59.4919 24.9896 65.1347 17.8366C67.8625 14.3677 70.831 11.087 73.6391 7.67188C74.6286 6.46179 75.5914 6.81137 76.5274 7.48364C78.2924 8.80129 79.4691 8.34416 81.047 6.83827C86.8503 1.19119 93.8036 -1.09454 101.853 0.492021C102.522 0.626475 103.19 0.787812 103.806 1.02983C109.662 3.07354 111.882 7.64498 109.582 13.3996C108.887 15.1475 109.047 15.9005 110.384 17.3526C113.594 20.8484 114.476 24.5325 112.123 29.2115C111.508 30.4216 110.732 31.5241 109.903 32.8686C112.444 33.998 114.984 35.1544 115.733 38.0586C116.428 40.7745 115.118 43.1678 113.941 45.6418C117.605 47.309 122.392 47.3359 123.756 52.4989C122.258 53.1174 121.322 52.0418 120.279 51.5847C118.033 50.5359 115.813 49.4872 113.299 49.1107C111.909 48.8956 110.919 49.1107 109.983 50.1595C108.78 51.5309 107.309 52.6334 105.597 53.3057C103.913 53.978 103.03 53.4401 102.709 51.6922C102.335 49.7561 103.271 48.4115 104.715 47.309C105.811 46.4754 107.175 46.2065 108.486 45.8569C111.053 45.1846 113.219 42.3073 113.112 39.672C113.059 38.677 112.631 38.0048 111.855 37.3863C109.422 35.5039 107.603 35.477 104.982 37.2249C103.19 38.435 101.399 39.5913 99.0988 39.5913C97.922 39.5913 96.8256 39.5913 96.3442 38.2199C95.8895 36.9291 95.9163 35.7997 96.9593 34.7779C98.029 33.7022 99.3394 33.0568 100.784 32.7073C101.88 32.4384 103.03 32.0888 104.127 32.1426C107.978 32.3308 108.833 29.1846 110.117 26.6837C111.32 24.3173 110.384 22.0585 108.833 20.1223C107.416 18.3744 106.935 18.3476 105.383 19.9879C103.03 22.4619 100.543 24.7745 97.3604 26.1997C96.0233 26.7913 94.6326 27.5711 93.2687 26.3072C91.985 25.1241 91.7176 23.5375 92.092 21.924C92.7338 19.235 94.3117 17.2719 96.8791 16.0887C99.2057 15.04 101.613 14.3946 104.127 14.7173C105.704 14.9324 106.346 14.287 106.935 13.05C109.047 8.61306 107.63 5.11724 102.87 3.42312C97.1732 1.37941 86.3957 2.37438 80.2447 9.87693C81.4214 11.2215 82.7051 12.5122 83.8016 13.9106C85.3527 15.8736 85.3794 16.1156 83.8016 17.998C80.004 22.4888 76.2332 27.0602 72.195 31.3627C67.6218 36.2569 63.2627 41.3123 59.0372 46.5292C58.128 47.6586 57.7803 48.4384 58.6628 49.7292C59.7058 51.3426 60.4546 53.1443 61.4441 54.7847C61.8988 55.5376 62.1929 56.1561 61.6848 56.9628C61.1232 57.8233 60.3744 57.9578 59.3582 57.8233C57.6466 57.6082 56.2292 56.5326 54.5444 56.2099C53.8758 57.3393 53.0467 58.3343 53.3409 59.7864C61.6046 61.4805 69.1462 65.0032 76.5541 68.9024C78.239 69.7898 79.8168 70.9461 81.4214 72.0217C83.0795 73.1242 83.8016 74.657 83.6678 76.6469C83.2132 83.1814 81.6086 89.3932 78.6668 95.2285C77.3029 97.9445 74.8158 99.2353 71.8473 99.7462C67.7288 100.445 63.7976 99.5849 59.8663 98.563C50.0247 95.9546 40.6111 92.0554 31.1172 88.452C28.1487 87.3226 25.1802 86.247 22.3721 84.768C18.4141 82.6436 17.4246 80.5192 18.3874 76.1898C18.5478 75.5175 18.6815 74.8453 18.8955 74.2268C19.2699 73.2049 19.0827 72.4789 17.9862 72.1293C17.8792 72.1024 17.799 72.0217 17.692 71.9679C14.4472 70.1752 11.5232 70.5875 8.92023 73.2049C7.55632 74.5764 6.29938 76.0553 4.6413 77.0772C3.70528 77.6688 2.66229 78.3949 1.53907 77.4806C0.603052 76.7276 0.0949288 75.652 0.282132 74.4688C0.576309 72.694 0.977459 70.8654 2.79601 69.8973C3.09018 69.736 3.38436 69.5478 3.65179 69.3595C5.06919 68.4452 6.86099 67.8267 7.82375 66.5629C8.75977 65.3528 7.26214 63.578 7.66329 61.9914C7.74352 61.6687 7.66329 61.3192 7.66329 60.9696C7.93073 58.4687 8.57257 57.9578 10.9527 58.657C13.3329 59.3561 15.6595 60.2435 18.013 61.104C20.714 62.0721 20.714 62.099 22.1582 59.4906C22.3186 59.1948 22.4524 58.8721 22.6128 58.5763C25.5011 53.2788 27.4266 52.23 33.3102 53.3595C37.1612 54.1124 41.0657 54.8385 44.9702 56.1292L45.0505 56.0485ZM15.1782 66.9662C15.3654 67.6654 15.9002 67.8536 16.4084 68.0688C18.2537 68.8486 20.6606 69.0906 21.7303 70.7847C22.9605 72.7209 21.4094 74.9528 20.9815 77.0234C20.5268 79.2822 20.7675 80.1159 22.6663 81.2991C23.8965 82.0789 25.2604 82.6705 26.6243 83.2352C30.2882 84.7142 33.9787 86.1394 37.6693 87.5646C45.4784 90.5495 53.1804 93.8571 61.3104 95.8739C64.8405 96.7613 68.3707 97.4067 72.0345 96.5731C74.3879 96.0352 76.0192 94.7983 77.0622 92.4857C79.0412 88.1024 80.1912 83.5579 80.9668 78.8251C81.3947 76.2436 80.7796 74.4419 78.5599 73.0974C70.9113 68.3915 62.9685 64.3847 54.3304 61.9107C52.7526 61.4536 51.8968 61.5612 51.1212 63.1208C50.1852 65.0301 49.1957 67.0738 46.3876 66.6704C45.6923 66.5629 45.4249 67.5309 45.1842 68.1494C44.8365 69.0637 45.5853 69.252 46.1737 69.6015C49.2224 71.2957 49.8375 74.0385 49.1689 77.2117C48.5539 80.1965 46.3342 81.3529 43.6598 82.052C42.082 82.4554 40.5041 82.2672 38.9262 82.3478C37.7495 82.4016 36.8938 81.9713 36.8403 80.6537C36.76 79.1209 37.91 79.1478 38.953 79.1478C40.8785 79.1478 42.804 79.2285 44.5958 78.3142C46.7888 77.1848 47.2702 74.9528 45.6656 73.0167C45.3714 72.6671 44.9168 72.4251 44.7296 72.0217C43.9807 70.5158 41.5738 69.4671 42.6703 67.4503C43.954 65.0839 40.6378 64.7074 41.0925 62.825C41.2797 62.0183 41.761 61.3998 42.1354 60.7276C42.6436 59.8402 43.7133 59.1948 43.6331 57.904C40.1832 57.7158 37.0542 56.6939 33.845 56.1023C28.4429 55.1074 27.1859 55.7258 24.5383 60.4586C23.7093 61.9376 23.014 63.5511 21.2489 64.1965C20.5268 64.4654 20.5268 64.7881 20.7943 65.4335C21.4361 66.9931 20.6338 67.3696 19.1897 67.4234C17.8525 67.4772 16.5956 66.536 15.2317 67.02L15.1782 66.9662ZM56.5234 52.7141C54.7316 49.9981 55.6676 48.0351 57.3792 45.7494C61.6848 39.8871 65.9905 34.0787 70.7508 28.593C74.2274 24.5862 77.3832 20.3106 80.7261 16.1156C78.9878 14.3408 77.5971 12.5391 75.4576 11.5442C74.2275 10.9526 73.2914 10.845 72.3287 12.1358C68.2637 17.7291 64.0917 23.2417 60.5616 29.2384C57.5664 34.3207 54.785 39.5376 51.87 44.6468C51.4154 45.4804 51.1212 46.7174 49.8643 46.583C47.8318 46.3947 46.7086 47.9544 44.7563 48.788C48.8213 50.3208 52.7258 51.0468 56.5234 52.7141ZM51.3619 54.7578C50.2654 54.1124 49.0352 52.741 47.9922 54.5696C46.6283 56.9897 45.5853 59.5981 44.4354 62.099C47.4039 63.7393 47.7783 62.6637 48.7143 60.7276C49.6503 58.7914 50.8003 56.9628 51.3619 54.7578ZM2.63555 75.894C5.92498 74.4957 8.06444 71.8604 10.3911 69.4671C10.7388 69.1175 10.3911 68.8486 10.2574 68.5797C10.0434 68.2032 9.6423 68.257 9.34812 68.3915C7.12843 69.494 4.88199 70.5965 2.98321 72.2368C1.96696 73.1242 1.88673 74.3612 2.63555 75.894ZM94.8733 23.5913C98.7243 22.2198 100.864 20.7139 103.19 17.8635C97.3604 18.5358 95.5419 19.719 94.8733 23.5913ZM15.3119 62.8788C13.5468 62.2065 12.1294 61.5612 10.6051 61.3729C9.96322 62.4217 10.3644 63.4435 10.5248 64.4116C10.7655 65.8368 11.9957 66.5629 13.1457 66.6435C14.5096 66.7242 14.3759 65.3797 14.3759 64.3847C14.3759 63.7662 14.9375 63.5242 15.2851 62.8788H15.3119Z" fill="black"/>
<path d="M32.2941 68.2034C33.7383 68.5261 35.1557 68.9025 36.6265 68.795C37.3219 68.7412 38.1509 69.0908 37.9637 69.9244C37.7765 70.7042 37.3486 71.7799 36.1452 71.4572C34.6208 71.0538 33.1232 70.5966 31.6523 70.0588C31.1442 69.8706 30.7163 69.3059 30.9035 68.6874C31.1174 67.9882 31.8127 68.284 32.2941 68.2034Z" fill="black"/>
<path d="M30.3951 74.0924C31.9195 74.415 33.4438 74.7109 34.9682 75.0336C35.5298 75.168 36.0914 75.4369 35.9577 76.1361C35.7972 76.9428 35.3159 77.7226 34.3798 77.5075C32.8555 77.1579 31.3846 76.6739 29.9137 76.1899C29.2451 75.9747 28.5765 75.5176 28.737 74.7646C28.8975 73.931 29.78 74.1192 30.4218 74.0924H30.3951Z" fill="black"/>
</svg>
