<svg width="81" height="100" viewBox="0 0 81 100" fill="none" xmlns="http://www.w3.org/2000/svg">
<path d="M30.3737 49.4536C29.8771 47.3433 29.1983 45.2995 29.4797 43.0563C29.7943 40.6137 30.7048 38.4369 32.2113 36.5427C34.6118 33.5185 39.8928 33.3191 42.7733 36.0442C45.3393 38.4535 45.7698 40.9792 44.3957 44.236C43.121 47.2768 41.3 49.8524 38.7174 51.7466C38.9326 52.6605 39.7272 52.7104 40.0749 53.2421C40.4225 53.7905 40.853 53.7074 41.3331 53.4415C41.9456 53.1092 42.674 52.9098 43.1707 52.4445C46.1505 49.7028 48.1868 46.446 48.3689 42.2587C48.402 41.4943 48.3689 40.7134 48.3689 39.9324C48.3855 38.0547 48.6338 37.739 50.5707 37.739C52.1765 37.739 53.7824 37.9052 55.3882 38.0215C59.9905 38.3372 64.5927 38.6695 69.195 39.0019C70.1055 39.0683 70.9995 39.1514 71.8934 39.2844C72.3901 39.3508 72.8702 39.5668 72.9033 40.165C72.9364 40.7466 72.4563 40.9792 72.0424 41.2617C71.5127 41.6273 70.9333 41.4279 70.4035 41.3614C65.288 40.6303 60.1063 40.4974 54.9578 40.1318C53.5175 40.0321 52.0772 39.5835 50.521 39.9989C50.3555 41.2783 50.5045 42.591 50.2727 43.9203C49.6271 47.6922 47.6736 50.6998 45.1572 53.3917C43.4686 55.1862 41.2503 56.0503 38.7671 56.1832C37.9393 56.2331 37.1116 56.3494 36.1679 56.4325C37.2274 59.3403 35.903 61.6001 34.3303 63.7769C33.337 65.1394 32.6252 66.6681 31.8305 68.147C31.218 69.2769 31.7312 70.1742 32.559 70.9552C33.6681 72.0186 34.7939 73.0821 35.9196 74.1289C36.5984 74.7603 37.1116 75.4914 37.6248 76.2558C38.5684 77.6682 38.6677 79.1304 37.8565 80.6259C37.4095 81.4235 36.9791 82.2377 36.3997 82.9356C32.4596 87.6712 28.4699 92.3903 24.4967 97.0927C24.1325 97.5248 23.7352 97.9235 23.3048 98.2891C20.9043 100.366 19.9938 100.466 17.0967 99.0535C15.7061 98.3722 14.3651 97.6411 13.0904 96.7604C10.9051 95.2151 8.55434 93.9855 6.15387 92.8389C4.76326 92.1577 3.47198 91.3102 2.32969 90.28C0.194105 88.3857 -0.501201 86.1259 0.359654 83.2679C1.50194 79.5126 3.47198 76.2059 5.64067 73.0156C7.61071 70.1077 9.69663 67.283 12.0474 64.6908C12.6103 64.0594 13.2394 63.511 13.8022 62.8796C15.9213 60.5035 18.4376 60.6032 21.0864 61.6998C21.9307 62.0488 22.7419 62.4642 23.5365 62.8962C24.9603 63.6606 24.8775 63.6273 25.5728 62.2814C26.682 60.1047 27.2448 57.6621 28.652 55.6515C28.5692 55.4853 28.5361 55.2859 28.4368 55.2527C26.831 54.6877 26.086 53.5246 25.3245 51.9959C23.967 49.221 23.4206 46.3629 23.7517 43.4218C24.1325 39.9822 25.3245 36.7421 27.2945 33.8508C27.6918 33.2692 28.0891 32.6877 28.4699 32.1227C28.1885 31.4913 27.6421 31.6907 27.1952 31.6741C24.8113 31.6574 22.4274 31.6741 20.0434 31.6741C16.4676 31.6741 12.9414 31.2586 9.39864 30.81C8.43845 30.6937 7.46171 30.4444 6.55119 30.0955C4.66393 29.381 4.34939 27.2043 5.90555 25.9082C6.99818 24.9943 8.37223 24.5955 9.71318 24.2133C12.9083 23.2994 16.1696 23.0502 19.4806 23.1332C20.7222 23.1665 21.9969 23.3326 23.222 23.0169C23.222 22.2692 22.5929 22.3024 22.1956 22.1363C19.762 21.0894 17.2953 20.0592 14.8452 19.0456C13.289 18.3976 11.8488 17.5169 10.5575 16.4202C9.41519 15.4399 8.52123 14.2933 8.48812 12.6649C8.47156 11.3688 8.83577 10.8537 10.1271 10.7042C11.6501 10.5048 13.1897 10.5214 14.7128 10.887C17.8416 11.6513 20.954 12.4157 24.0166 13.4293C24.745 13.6619 25.4403 14.0275 26.235 13.9942C26.7813 14.4429 27.46 14.4595 27.9898 14.526C27.5097 14.0108 26.8641 13.529 26.1025 13.2299C23.0399 10.7873 21.2685 7.46399 19.8944 3.90809C19.4806 2.82802 18.868 1.49871 19.8117 0.501732C20.7884 -0.511867 22.0466 0.269103 23.1558 0.60143C26.2846 1.5818 29.0162 3.3099 31.3173 5.60296C34.1482 8.44436 37.4095 10.7707 40.406 13.396C45.1738 17.5834 50.819 19.8432 56.5636 22.0532C61.828 24.0804 67.4071 24.7616 72.8867 25.8417C75.221 26.2903 77.6049 26.523 79.8729 27.2375C80.3364 27.387 81.1807 27.4203 80.9655 28.2178C80.7669 28.9988 80.1874 29.1318 79.31 28.949C73.8304 27.8689 68.301 27.0381 62.871 25.8251C55.8021 24.2465 48.9814 21.7541 43.0051 17.6498C39.1809 15.0078 35.5057 12.0335 32.1285 8.74345C30.92 7.56369 29.6287 6.48363 28.4037 5.32048C27.7746 4.72229 27.1952 4.47305 26.4171 5.12108C25.4403 5.91867 24.1822 5.80236 22.9074 5.9519C23.4869 7.89602 24.6292 9.37488 26.0198 10.6543C28.1057 12.5652 30.622 13.8281 33.0391 15.2405C34.2476 15.9383 35.4726 16.6362 36.6646 17.3674C37.0784 17.6166 37.5585 17.9157 37.2606 18.5305C36.9791 19.1121 36.5156 19.3447 35.8699 19.1287C34.678 18.7299 33.486 18.3477 32.2941 17.9323C27.2779 16.1876 22.2287 14.5093 17.0801 13.18C16.1696 12.9474 15.3584 12.7646 14.7293 13.745C14.5307 14.0773 14.0671 14.2435 13.7029 14.4595C12.1633 15.3568 12.1136 15.7057 13.7857 16.5199C18.7522 18.9459 23.8014 21.2057 29.2314 22.4187C31.2015 22.8508 33.2046 23.1997 35.1912 23.6151C35.6547 23.7148 36.3335 23.7979 36.2838 24.3795C36.2341 25.0441 35.7209 25.4928 34.9594 25.4429C33.1384 25.3432 31.3339 25.2103 29.5129 25.1771C23.8511 25.0774 18.1893 24.3629 12.5441 25.3764C11.4514 25.5758 10.5575 25.7919 10.2098 27.0215C10.0277 27.6695 9.36553 28.0517 8.57089 28.6333C11.4018 29.2481 13.9512 29.381 16.4841 29.6302C20.3249 30.029 24.1822 29.7964 28.0229 29.8629C28.9334 29.8795 29.844 29.9293 30.7379 30.0623C31.9464 30.245 32.2113 30.9429 31.4829 31.9732C31.2015 32.3719 30.8041 32.6877 30.473 33.0532C26.8806 36.8916 25.3245 41.4445 25.6887 46.6953C25.7383 47.4098 26.0032 48.0578 26.086 48.7391C26.2019 49.6031 26.682 49.9853 27.5263 49.6696C28.2547 49.4037 28.9003 49.6696 29.5625 49.8856C30.0923 50.2844 30.2909 51.0488 31.0359 51.3645C31.0359 50.517 30.7214 49.9355 30.2744 49.3871L30.3737 49.4536ZM31.2511 54.3222C29.8605 54.3886 30.8538 55.2859 30.3737 55.6847C29.1652 56.6817 28.95 58.1938 28.6023 59.6228C28.205 61.2678 27.4435 62.7799 26.6985 64.2754C25.9204 65.8373 25.0099 66.07 23.4703 65.289C22.7916 64.94 22.1294 64.5412 21.4175 64.2421C17.8416 62.6802 16.1861 63.0458 13.6864 65.9204C10.8389 69.2104 8.25635 72.6999 5.90555 76.3555C4.43216 78.6652 3.2071 81.0912 2.28002 83.6833C1.58472 85.5942 1.94893 87.0066 3.37265 88.4024C4.86259 89.848 6.56775 90.8782 8.4219 91.7423C11.7825 93.3208 14.6797 95.7136 17.9741 97.4084C19.9772 98.4387 20.6063 98.3888 22.2949 96.91C22.6095 96.6275 22.924 96.345 23.1889 96.0127C27.1952 91.061 31.2346 86.1425 35.1746 81.141C36.7639 79.1138 36.6315 78.3328 34.7773 76.4386C33.6019 75.2422 32.3437 74.1123 31.1352 72.9491C29.1983 71.1047 28.7679 69.1606 30.1419 66.9174C31.367 64.9068 32.2775 62.7467 33.6681 60.7859C35.5223 58.1606 35.274 57.7451 32.9066 56.3161C32.6583 56.1666 32.2775 55.8675 32.0292 56.3328C31.8305 56.6983 32.0292 56.9808 32.3603 57.1968C32.8238 57.5125 33.3039 57.8282 33.2543 58.5095C33.188 59.3403 32.0126 60.5367 31.3173 60.4869C30.6386 60.437 30.2082 59.5896 30.2909 58.443C30.3075 58.0941 30.4234 57.7618 30.5061 57.4294C30.7545 56.4158 31.0194 55.4189 31.3008 54.3222H31.2511ZM32.6417 48.872C33.0059 48.8222 33.1053 48.5397 33.2543 48.307C33.5688 47.8418 33.8834 47.3765 34.2476 46.9611C34.9925 46.0971 35.9693 45.8146 37.0784 46.0306C38.5187 46.2965 38.7174 47.4762 38.8498 48.9219C41.2834 46.7617 42.4422 44.2028 43.27 41.4445C43.3693 41.1288 43.3362 40.7134 43.2038 40.4143C42.3429 38.4868 41.2668 36.7587 38.287 36.4596C35.7209 36.1937 34.0986 36.9913 32.9066 39.1514C31.1187 42.3584 31.0856 45.5986 32.6417 48.8886V48.872ZM26.1688 3.84162C24.4802 2.99419 23.1061 2.0969 21.3347 2.17999C22.1128 5.10447 23.1392 5.48664 26.1688 3.84162ZM10.2429 12.4988C10.6237 13.8945 10.6403 14.0108 11.2693 14.0441C12.3951 14.0939 13.4215 13.8447 14.0837 12.4988H10.2429ZM34.4628 50.65C35.0753 50.517 35.5388 50.4007 36.0024 50.3176C36.6315 50.2013 36.7308 49.7527 36.6811 49.2376C36.6646 48.9219 36.8136 48.5064 36.3831 48.3735C35.903 48.224 35.6382 48.6394 35.3733 48.9219C34.9594 49.3705 34.4628 49.7859 34.4628 50.6333V50.65ZM29.9267 52.1953C29.2425 51.4088 28.4699 51.2371 27.609 51.6802C28.1885 52.727 28.9334 53.0261 29.9267 52.1953ZM9.54763 26.174C8.90199 26.4067 8.50467 26.4897 8.15702 26.6891C7.62726 26.9882 6.50153 27.0381 6.89884 27.8855C7.13061 28.4172 8.07424 27.9188 8.65367 27.6197C9.16687 27.3704 9.46486 27.0049 9.54763 26.174ZM35.5057 53.94C36.6094 54.1394 37.5972 54.0342 38.4691 53.6243C37.4427 53.1923 36.6149 52.943 35.5057 53.94ZM32.0292 58.1606C31.8968 58.3433 31.7312 58.4929 31.7312 58.6424C31.7312 58.792 31.8968 58.8252 32.0292 58.7089C32.112 58.6258 32.2113 58.5261 32.2444 58.4264C32.2444 58.3766 32.1285 58.2769 32.0458 58.1606H32.0292Z" fill="black"/>
</svg>
