<svg width="84" height="100" viewBox="0 0 84 100" fill="none" xmlns="http://www.w3.org/2000/svg">
<path d="M32.2671 9.18094C31.1917 8.3005 31.1111 7.48056 31.1245 6.51275C31.1648 4.0798 29.7938 2.72891 27.3877 2.52728C24.9346 2.32565 22.8847 3.09183 21.144 4.81238C19.3428 6.5934 17.7164 8.46853 17.0577 11.3719C22.5016 11.1703 27.7372 10.9754 32.9996 10.7805C34.075 9.0062 35.0697 7.205 36.2122 5.51135C38.9409 1.4721 43.0137 0.625276 47.51 0.974761C49.291 1.1159 50.3462 2.20468 50.9914 3.86473C51.771 5.86755 51.7777 7.83004 50.9645 9.80598C51.9592 10.216 52.4229 10.0412 52.8262 9.09357C53.4512 7.63514 54.204 6.19015 55.1247 4.89975C57.5375 1.53259 61.0189 0.759693 64.8969 1.28392C66.2612 1.4721 67.1416 2.44663 67.8809 3.5959C69.0504 5.41725 68.9495 7.37303 68.6538 9.3624C68.5933 9.78582 68.3111 10.2361 68.0019 10.5386C67.7801 10.7603 67.2828 10.9149 67.0139 10.8141C66.7518 10.7133 66.4561 10.2563 66.4628 9.95384C66.4763 9.35568 66.7115 8.76424 66.8056 8.16609C67.2492 5.28284 65.6362 3.42116 62.7596 3.45476C58.9959 3.50181 55.8304 6.09606 54.6879 10.1958C59.4328 10.7066 64.1576 11.2174 68.8622 11.7214C69.4469 10.6595 69.951 9.72533 70.4752 8.79785C71.7051 6.5934 73.7012 5.37693 76.0132 4.61075C77.438 4.14029 78.715 4.45617 79.8777 5.39037C82.4786 7.48728 83.0163 10.3369 81.3764 13.2941C81.1882 13.6369 81.1412 14.0939 81.1278 14.5039C81.0874 16.0967 80.8388 16.3051 79.1921 15.9623C77.102 15.5187 75.0185 15.0348 72.9283 14.6181C72.1151 14.4568 71.275 14.4165 70.3542 14.3022C69.5275 16.5201 69.5074 18.7716 69.7023 21.1978C70.2332 21.2987 70.744 21.3591 71.2346 21.4868C73.7214 22.1522 74.6757 23.9467 73.8423 26.3796C72.9619 28.9672 70.7373 30.1164 68.4791 29.1486C66.2074 28.1741 65.3539 24.9548 67.108 22.9587C68.1094 21.8162 68.1229 20.8349 68.0153 19.4773C67.8809 17.7568 68.1968 16.0026 68.3312 14.0939C63.6871 13.079 59.0564 12.864 54.2107 12.2994C53.2429 14.6181 53.5856 17.0309 53.5453 19.4639C54.4795 19.6789 55.2927 19.8268 56.0791 20.0553C58.3642 20.7274 59.1707 22.1388 58.4919 24.4037C58.2566 25.1968 57.8534 25.9697 57.3762 26.6485C56.2135 28.2749 54.7282 28.6513 52.7052 27.9658C51.2266 27.4617 50.2991 26.1982 50.3664 24.4037C50.4 23.4426 50.5075 22.2597 51.072 21.5809C52.0869 20.3645 52.0466 19.1883 51.9054 17.7769C51.7307 16.0497 51.8651 14.2955 51.8651 12.2524C46.3338 12.1112 40.7085 12.0776 35.0025 12.4137C34.0414 14.5173 34.1086 16.5336 35.0025 18.691C36.2122 18.691 37.3548 18.5902 38.4771 18.7111C41.3201 19.0203 42.7852 21.5944 41.6964 24.2491C40.4531 27.2802 37.4354 28.7857 34.4043 27.8179C32.8921 27.334 32.1999 26.0369 32.1864 24.6389C32.173 23.3956 32.7039 22.1522 32.9795 20.9021C33.1206 20.2704 33.3827 19.6117 33.3088 19.0068C33.1945 18.113 32.7106 17.2661 32.6031 16.3723C32.4754 15.2432 32.5695 14.0804 32.5695 12.7497C29.9618 12.7497 27.3138 12.7497 24.659 12.7497C22.0043 12.7497 19.4638 12.7497 16.7687 12.7497C15.8816 15.0684 16.2647 17.1519 17.1384 19.2958C17.4341 19.2488 17.6828 19.2891 17.8239 19.1816C19.195 18.16 20.64 17.8979 22.0312 19.0136C23.5232 20.2099 24.6322 21.675 23.9735 23.7652C23.6778 24.7061 23.2745 25.6135 22.8511 26.5073C22.0312 28.2548 20.5257 28.5169 18.7984 28.3421C17.0981 28.1674 16.5134 26.924 16.1571 25.5597C15.9354 24.6927 15.7673 23.6846 15.9891 22.8579C16.3184 21.6347 16.0698 20.6602 15.5523 19.5848C14.5777 17.5551 14.2215 15.3843 14.6181 13.0992H6.91596C6.55975 16.0228 6.09601 18.7918 5.90783 21.5742C5.47097 28.1203 5.13493 34.6799 4.81232 41.2327C4.6107 45.272 4.37547 49.318 4.37547 53.3639C4.38219 59.2581 3.76387 65.0918 3.1926 70.939C2.42642 78.7822 2.39281 86.6658 2.54739 94.5359C2.56755 95.4433 2.81623 96.3438 2.96409 97.2444C3.1926 98.6357 3.15899 98.7566 2.003 100C1.04864 99.7782 0.981431 98.8911 0.867176 98.2055C0.578179 96.4783 0.28246 94.7308 0.262298 92.9834C0.221973 88.5476 0.168206 84.0984 0.43032 79.6761C0.739479 74.4271 1.38468 69.1983 1.86858 63.9627C2.00972 62.4438 2.15086 60.9249 2.21135 59.3992C2.38609 55.1248 2.44658 50.8436 2.68181 46.5691C2.9036 42.5366 3.27325 38.5041 3.62945 34.4783C3.9991 30.3046 4.37547 26.1242 4.83921 21.9573C5.14165 19.2286 5.61883 16.5201 6.00864 13.8049C6.06913 13.368 6.07585 12.9177 6.13633 12.1314C8.89861 11.8827 11.8087 11.6206 14.8533 11.3518C15.0684 10.7939 15.2902 10.2428 15.4918 9.685C16.4327 7.13107 17.9315 4.94679 19.7999 2.9843C21.9169 0.786576 24.6053 0.0271185 27.4885 0.000235028C31.3261 -0.0333693 34.1556 3.54213 33.2685 7.15796C33.1072 7.8166 32.6569 8.40804 32.2671 9.18094ZM35.9703 10.4377C40.3993 10.2697 44.788 10.1017 49.3784 9.92695C49.2641 8.30723 49.2238 6.74798 49.0155 5.20219C48.9012 4.36208 48.424 3.68999 47.4293 3.48164C42.5097 2.47351 37.6774 5.35004 35.9703 10.431V10.4377ZM79.6156 13.6167C79.8037 12.7161 79.9718 11.9163 80.1264 11.1098C80.1667 10.888 80.1734 10.6595 80.1734 10.431C80.1936 8.46181 78.426 6.49259 76.8533 6.92273C74.1851 7.6553 72.0949 9.14733 71.1607 12.0642C72.6393 12.3061 73.97 12.5078 75.3008 12.7564C76.7054 13.0118 78.1034 13.3143 79.6156 13.6167ZM21.5943 23.2612C20.0082 24.276 18.7716 23.6174 17.4476 23.0662C17.4476 23.7787 17.3535 24.323 17.4677 24.8137C17.6761 25.7143 18.0323 26.6418 19.0942 26.8165C20.1897 26.998 20.9894 26.3998 21.5338 25.4858C22.1656 24.4306 22.7369 23.3485 22.3605 22.2933C21.3591 21.3995 20.5392 20.6736 19.5713 19.8133C19.1278 20.2233 18.6707 20.6467 17.8911 21.3726C19.2756 22.0783 20.3039 22.6092 21.5943 23.2612ZM34.5387 22.0648C34.3438 22.6227 34.122 23.0394 34.0548 23.4695C33.8263 25.0892 34.9823 26.2721 36.6087 26.1242C38.0067 25.9965 39.8952 24.2021 39.9221 22.7907C39.9356 22.2799 39.6197 21.4801 39.2232 21.2919C38.2621 20.8282 37.1666 20.6467 36.1248 20.351C36.0307 20.519 35.9299 20.6803 35.8358 20.8484C36.7163 21.6817 37.5967 22.5151 38.4704 23.3485C37.3212 24.1685 37.2338 24.1483 34.5387 22.0581V22.0648ZM68.2371 24.1954C67.5785 26.0234 67.9481 27.092 69.3125 27.4281C70.5491 27.7373 72.0411 26.6485 72.2965 25.2505C72.4713 24.2894 71.9672 23.8929 69.9308 23.5905C70.4819 24.4709 70.9188 25.1766 71.3825 25.9226C69.6015 26.5813 69.4939 24.3499 68.2439 24.2021L68.2371 24.1954ZM55.5549 25.6807C54.493 24.5247 53.4916 23.4426 52.4565 22.3135C51.7509 24.2021 51.8987 25.3782 52.927 26.0839C54.0225 26.8367 54.9097 26.4804 55.5549 25.6807ZM56.2404 24.5986C56.6795 23.4292 55.9536 22.3202 54.0628 21.2718C54.2645 22.7436 55.0777 23.651 56.2404 24.5986Z" fill="black"/>
<path d="M63.089 79.6157C62.8135 81.1548 62.5782 82.4855 62.296 84.0447C60.3604 82.8148 61.0392 80.8523 60.2596 79.3334C55.5549 78.9974 50.7898 78.6546 45.9172 78.3051C45.2451 81.9075 46.3205 85.4897 45.0233 89.0383C43.7061 88.2856 43.6254 87.0826 43.5851 85.9131C43.5313 84.0783 43.5851 82.2368 43.5649 80.402C43.5582 79.656 43.491 78.91 43.4439 77.9422C39.2232 77.7271 35.1302 77.512 30.7549 77.2835C30.6474 79.8375 30.6273 82.1696 30.802 84.5219C30.923 86.1215 31.0507 87.7412 30.9364 89.3273C30.8558 90.4027 30.3517 91.4444 29.9753 92.7079C28.7185 91.8611 28.7118 90.8799 28.7118 89.9053C28.7118 86.4642 28.7118 83.0232 28.7051 79.5888C28.7051 78.8428 28.6379 78.0968 28.5908 77.2365C24.7196 77.0819 21.003 76.9273 17.1452 76.7728C16.6075 81.0674 18.3617 85.3956 17.3267 89.9053C15.8145 88.9241 15.5456 87.6471 15.4381 86.3567C15.223 83.7692 15.0886 81.1749 14.934 78.5874C14.8937 77.9825 14.8803 77.3709 14.8534 76.7929C14.2485 76.5779 13.7176 76.3829 12.8035 76.0536C13.6436 75.7243 14.0939 75.5428 14.5442 75.3681C14.6719 70.5627 14.7929 65.7707 14.9206 60.8645C14.2351 60.6628 13.6369 60.4814 12.5212 60.1453C13.5764 59.7421 14.1679 59.5136 14.9071 59.2313C15.176 55.0509 15.4448 50.8033 15.7204 46.502C14.7727 46.0786 13.8049 45.6484 12.8438 45.2116C12.8909 45.0099 12.9447 44.8083 12.9917 44.6067C13.8923 44.6605 14.7996 44.7142 15.7809 44.768C16.0161 43.5515 16.2312 42.4157 16.4529 41.2731C16.6277 41.2731 16.8092 41.2731 16.9839 41.2731C17.0444 41.8108 17.1519 42.3552 17.1452 42.8929C17.1452 43.4104 17.0175 43.9212 16.91 44.6605H29.4847C29.6326 43.0676 29.7939 41.3739 29.9552 39.687C30.0761 39.7005 30.2038 39.7072 30.3248 39.7206V44.815C35.1571 45.2653 40.0365 44.6336 44.9965 45.2452C45.0973 44.6672 45.1914 44.1698 45.272 43.6725C45.3527 43.1483 45.4199 42.6173 45.5072 41.9452C46.6901 42.7921 45.7962 44.0489 46.4616 45.1578C51.2133 45.3057 56.1397 45.4602 61.3483 45.6215C61.5634 43.9951 61.7852 42.3014 62.0137 40.6078C62.1145 40.6078 62.222 40.6078 62.3229 40.6078V45.4871C63.8821 45.7963 65.233 46.0651 66.7855 46.3743C65.8984 48.5922 64.2518 48.4241 62.417 48.3905C62.5783 51.9929 62.7328 55.5348 62.8874 59.0767C63.956 59.8631 65.7102 59.2178 66.2747 61.1602C65.3741 61.5029 64.4399 61.8524 63.3579 62.2624C63.3512 62.2826 63.21 62.4909 63.2033 62.706C63.0756 66.6041 62.9613 70.4955 62.8605 74.3936C62.8404 75.0724 62.921 75.7445 62.9479 76.4098C64.2249 76.6719 65.3876 76.9072 66.7452 77.1827C66.0933 79.1788 64.4937 79.2259 63.089 79.609V79.6157ZM45.9105 61.4357V75.8251C50.7226 76.0603 55.5415 76.3023 60.6426 76.5577C60.9316 71.6313 61.2072 66.9536 61.4962 61.9936C56.2001 61.8054 51.2065 61.6239 45.9105 61.4357ZM43.8136 75.5025C44.0623 70.7374 44.6335 66.2344 44.2572 61.6105C39.6601 61.4761 35.2176 61.3551 30.8289 61.2274V75.5025H43.8136ZM28.7454 75.5092C28.7589 70.556 29.5318 65.885 29.0478 61.0997C24.9347 60.515 20.9492 60.4343 16.7621 60.7032C16.8629 65.7371 16.5 70.5828 17.0175 75.5092H28.7521H28.7454ZM30.5869 59.3993H44.4319C44.6403 55.4407 44.8352 51.6031 45.0502 47.5504C39.976 47.295 35.231 47.0531 30.1501 46.7977C30.2979 51.1125 30.4391 55.1316 30.5869 59.3993ZM45.9575 59.1036H61.261V48.236C56.1195 48.0142 51.0923 47.5101 45.9575 47.7252V59.0969V59.1036ZM29.1419 46.6297C25.0489 46.502 21.1172 46.3743 17.0377 46.2466C16.5672 50.8168 16.7621 55.098 16.8092 59.1574H29.1419V46.6297Z" fill="black"/>
<path d="M75.4687 99.0187C73.6138 99.0187 72.1083 98.9851 70.6095 99.0187C62.894 99.2069 55.1784 99.4892 47.4562 99.6034C36.3667 99.7715 25.2706 99.8857 14.1812 99.879C11.2979 99.879 8.41465 99.3749 5.53812 99.0254C4.84587 98.9448 4.18722 98.5684 3.51514 98.3265C3.54874 98.1786 3.58235 98.0375 3.61595 97.8896C4.15362 97.8896 4.69801 97.8493 5.23568 97.8963C7.51405 98.1047 9.7857 98.5483 12.0574 98.5348C22.3067 98.4609 32.556 98.2862 42.8053 98.098C47.2344 98.0173 51.6634 97.856 56.0925 97.6409C61.8791 97.3587 67.6658 96.989 73.4793 96.6597C74.4068 95.1273 74.3262 93.4942 74.3463 91.9349C74.5278 78.8494 76.2215 65.9252 78.2176 53.0144C79.1114 47.221 79.387 41.3335 79.8709 35.4797C80.422 28.8529 81.5444 22.3336 83.5539 15.8615C83.6279 16.2916 83.8295 16.7419 83.7556 17.1451C82.6533 23.2275 81.6654 29.3166 81.5175 35.5267C81.2487 46.6094 79.5214 57.5375 78.0966 68.506C77.4514 73.4929 77.2901 78.547 76.9473 83.5675C76.6449 87.9831 76.4164 92.3987 76.087 96.8076C76.0198 97.6678 75.6166 98.5012 75.4687 99.0053V99.0187Z" fill="black"/>
</svg>
